<svg width="21" height="13" viewBox="0 0 21 13" fill="none" xmlns="http://www.w3.org/2000/svg">
<path fill-rule="evenodd" clip-rule="evenodd" d="M6.63019 11.7014C6.63019 11.89 6.52396 12 6.34185 12H4.0655C3.88339 12 3.77716 11.89 3.77716 11.7014V3.67143C3.77716 3.59286 3.73163 3.54571 3.65575 3.54571H1.28834C1.10623 3.54571 1 3.43571 1 3.24714V1.29857C1 1.11 1.10623 1 1.28834 1H9.19489C9.377 1 9.48323 1.11 9.48323 1.29857V3.24714C9.48323 3.43571 9.377 3.54571 9.19489 3.54571H6.7516C6.67572 3.54571 6.63019 3.59286 6.63019 3.67143V11.7014ZM13.2013 11.7014C13.2013 11.89 13.095 12 12.9129 12H10.6366C10.4545 12 10.3482 11.89 10.3482 11.7014V1.29857C10.3482 1.11 10.4545 1 10.6366 1H12.8978C13.0495 1 13.1709 1.06286 13.2468 1.20429L15.0831 4.3C15.1286 4.39429 15.2196 4.39429 15.2652 4.3L17.1014 1.20429C17.1773 1.06286 17.2987 1 17.4505 1H19.7117C19.8938 1 20 1.11 20 1.29857V11.7014C20 11.89 19.8938 12 19.7117 12H17.4353C17.2532 12 17.147 11.89 17.147 11.7014V6.15429C17.147 6.02857 17.0559 6.01286 16.9952 6.10714L16.0543 7.72571C15.9784 7.86714 15.857 7.93 15.7053 7.93H14.643C14.4912 7.93 14.3698 7.86714 14.2939 7.72571L13.353 6.10714C13.2923 6.01286 13.2013 6.02857 13.2013 6.15429V11.7014Z" fill="white"/>
</svg>
