<svg xmlns="http://www.w3.org/2000/svg" aria-hidden="true" style="position:absolute;width:0;height:0;overflow:hidden">
  <defs>
    <symbol id="icon-Combined" viewBox="0 0 32 32">
      <path d="M2.411 3.63h26.122a2.411 2.411 0 0 1 2.411 2.411v14.87a2.411 2.411 0 0 1-2.411 2.411H2.411A2.411 2.411 0 0 1 0 20.911V6.041A2.411 2.411 0 0 1 2.411 3.63zm6.832 24.916 2.773-3.617h7.274l2.773 3.617H9.243z"/>
    </symbol>
    <symbol id="icon-light" viewBox="0 0 32 32">
      <path d="M16 4.609a1 1 0 0 1-1-1V1a1 1 0 0 1 2 0v2.609a1 1 0 0 1-1 1zm8.761 3.63a1 1 0 0 1-.707-1.708l1.845-1.845a1 1 0 1 1 1.415 1.415l-1.845 1.845a1.001 1.001 0 0 1-.708.293zM28.391 17H31a1 1 0 0 0 0-2h-2.609a1 1 0 0 0 0 2zm-1.784 10.607a.993.993 0 0 1-.707-.293l-1.845-1.845a1 1 0 1 1 1.415-1.415l1.845 1.845a1 1 0 0 1-.708 1.708zm-21.92-.294a.997.997 0 0 0 1.415 0l1.845-1.845a1 1 0 1 0-1.415-1.415l-1.845 1.845a1 1 0 0 0 0 1.415zM3.609 17H1a1 1 0 0 1 0-2h2.609a1 1 0 0 1 0 2zm2.923-9.055c.195.196.451.293.707.293s.511-.099.708-.293a1 1 0 0 0 0-1.415L6.102 4.685A1 1 0 1 0 4.687 6.1l1.845 1.845zM20 28v1.667A2.344 2.344 0 0 1 17.667 32h-3.333c-1.12 0-2.333-.853-2.333-2.72V28h8zm1.88-19.253C19.693 6.974 16.813 6.28 14 6.88c-3.533.733-6.4 3.613-7.133 7.147-.747 3.627.613 7.227 3.52 9.427.787.587 1.333 1.493 1.52 2.547v.013c.027-.013.067-.013.093-.013h8c.027 0 .04 0 .067.013v-.013c.187-1.013.787-1.947 1.707-2.667 2.253-1.787 3.56-4.453 3.56-7.333a9.294 9.294 0 0 0-3.453-7.253zm-.88 7.92c-.547 0-1-.453-1-1A3.665 3.665 0 0 0 16.333 12c-.547 0-1-.453-1-1s.453-1 1-1A5.68 5.68 0 0 1 22 15.667c0 .547-.453 1-1 1z"/>
    </symbol>
    <symbol id="icon-Shape" viewBox="0 0 32 32">
      <path d="m18.797 15.921 6.827 6.854a1.892 1.892 0 0 1-.285 2.9l-8.682 5.841a1.903 1.903 0 0 1-2.962-1.565v-9.076l-4.514 4.564a1.873 1.873 0 0 1-2.659.012 1.889 1.889 0 0 1-.011-2.671l6.803-6.859-6.803-6.86a1.889 1.889 0 0 1 .011-2.671 1.876 1.876 0 0 1 2.659.012l4.514 4.563V1.889c0-.697.397-1.338 1.014-1.667s1.369-.29 1.948.101l8.682 5.843a1.888 1.888 0 0 1 .285 2.899l-6.828 6.856zm-1.27-10.484 3.838 2.583-3.838 3.853V5.437zm0 14.532v6.436l3.838-2.583-3.838-3.853z"/>
    </symbol>
    <symbol id="icon-battery" viewBox="0 0 32 32">
      <path d="M29.333 9.833h.321a2.336 2.336 0 0 1 2.333 2.333v7.333a2.336 2.336 0 0 1-2.333 2.333h-.321v.333a3.67 3.67 0 0 1-3.667 3.667h-22a3.671 3.671 0 0 1-3.667-3.667V9.498a3.67 3.67 0 0 1 3.667-3.667h22a3.671 3.671 0 0 1 3.667 3.667v.333zm-21 12a1 1 0 0 0 1-1v-10a1 1 0 0 0-1-1H5a1 1 0 0 0-1 1v10a1 1 0 0 0 1 1h3.333zm9-1v-10a1 1 0 0 0-1-1H13a1 1 0 0 0-1 1v10a1 1 0 0 0 1 1h3.333a1 1 0 0 0 1-1zm7 1a1 1 0 0 0 1-1v-10a1 1 0 0 0-1-1H21a1 1 0 0 0-1 1v10a1 1 0 0 0 1 1h3.333z"/>
    </symbol>
    <symbol id="icon-TM-2" viewBox="0 0 32 32">
      <path d="M10.103 23.926c0 .287-.162.455-.439.455H6.195c-.277 0-.439-.168-.439-.455V11.69c0-.12-.069-.192-.185-.192H1.964c-.278 0-.439-.168-.439-.455V8.074c0-.287.162-.455.439-.455h12.048c.277 0 .439.168.439.455v2.969c0 .287-.162.455-.439.455h-3.723c-.116 0-.185.072-.185.192v12.236zm10.013 0c0 .287-.162.455-.439.455h-3.469c-.277 0-.439-.168-.439-.455V8.074c0-.287.162-.455.439-.455h3.446c.231 0 .416.096.532.311l2.798 4.717c.069.144.208.144.277 0l2.798-4.717a.565.565 0 0 1 .532-.311h3.446c.277 0 .439.168.439.455v15.852c0 .287-.162.455-.439.455h-3.469c-.277 0-.439-.168-.439-.455v-8.453c0-.192-.139-.216-.231-.072l-1.434 2.466a.565.565 0 0 1-.532.311h-1.619a.565.565 0 0 1-.532-.311l-1.434-2.466c-.093-.144-.231-.12-.231.072v8.453z"/>
    </symbol>
  </defs>
</svg>
