<!-- Generated by IcoMoon.io -->
<svg version="1.1" xmlns="http://www.w3.org/2000/svg" width="32" height="32" viewBox="0 0 32 32">
<path d="M29.333 9.833h0.321c1.287 0 2.333 1.047 2.333 2.333v7.333c0 1.287-1.047 2.333-2.333 2.333h-0.321v0.333c0 2.023-1.645 3.667-3.667 3.667h-22c-2.021 0-3.667-1.644-3.667-3.667v-12.667c0-2.023 1.645-3.667 3.667-3.667h22c2.021 0 3.667 1.644 3.667 3.667v0.333zM8.333 21.833c0.552 0 1-0.448 1-1v-10c0-0.552-0.448-1-1-1h-3.333c-0.552 0-1 0.448-1 1v10c0 0.552 0.448 1 1 1h3.333zM17.333 20.833v-10c0-0.552-0.448-1-1-1h-3.333c-0.552 0-1 0.448-1 1v10c0 0.552 0.448 1 1 1h3.333c0.552 0 1-0.448 1-1zM24.333 21.833c0.552 0 1-0.448 1-1v-10c0-0.552-0.448-1-1-1h-3.333c-0.552 0-1 0.448-1 1v10c0 0.552 0.448 1 1 1h3.333z"></path>
</svg>
