<!-- Generated by IcoMoon.io -->
<svg version="1.1" xmlns="http://www.w3.org/2000/svg" width="32" height="32" viewBox="0 0 32 32">
<path d="M16 4.609c-0.552 0-1-0.448-1-1v-2.609c0-0.552 0.448-1 1-1s1 0.448 1 1v2.609c0 0.552-0.448 1-1 1zM24.761 8.239c-0.256 0-0.512-0.097-0.707-0.293-0.391-0.391-0.391-1.024 0-1.415l1.845-1.845c0.391-0.391 1.024-0.391 1.415 0s0.391 1.024 0 1.415l-1.845 1.845c-0.196 0.195-0.452 0.293-0.708 0.293zM28.391 17h2.609c0.552 0 1-0.448 1-1s-0.448-1-1-1h-2.609c-0.552 0-1 0.448-1 1s0.448 1 1 1zM26.607 27.607c-0.256 0-0.512-0.097-0.707-0.293l-1.845-1.845c-0.391-0.391-0.391-1.024 0-1.415s1.024-0.391 1.415 0l1.845 1.845c0.391 0.391 0.391 1.024 0 1.415-0.196 0.196-0.452 0.293-0.708 0.293zM4.687 27.313c0.195 0.196 0.451 0.293 0.707 0.293s0.512-0.097 0.708-0.293l1.845-1.845c0.391-0.391 0.391-1.024 0-1.415s-1.024-0.391-1.415 0l-1.845 1.845c-0.391 0.391-0.391 1.024 0 1.415zM3.609 17h-2.609c-0.552 0-1-0.448-1-1s0.448-1 1-1h2.609c0.552 0 1 0.448 1 1s-0.448 1-1 1zM6.532 7.945c0.195 0.196 0.451 0.293 0.707 0.293s0.511-0.099 0.708-0.293c0.391-0.391 0.391-1.024 0-1.415l-1.845-1.845c-0.391-0.391-1.024-0.391-1.415 0s-0.391 1.024 0 1.415l1.845 1.845zM20 28v1.667c0 1.28-1.053 2.333-2.333 2.333h-3.333c-1.12 0-2.333-0.853-2.333-2.72v-1.28h8zM21.88 8.747c-2.187-1.773-5.067-2.467-7.88-1.867-3.533 0.733-6.4 3.613-7.133 7.147-0.747 3.627 0.613 7.227 3.52 9.427 0.787 0.587 1.333 1.493 1.52 2.547v0.013c0.027-0.013 0.067-0.013 0.093-0.013h8c0.027 0 0.040 0 0.067 0.013v-0.013c0.187-1.013 0.787-1.947 1.707-2.667 2.253-1.787 3.56-4.453 3.56-7.333 0-2.827-1.253-5.467-3.453-7.253zM21 16.667c-0.547 0-1-0.453-1-1 0-2.027-1.64-3.667-3.667-3.667-0.547 0-1-0.453-1-1s0.453-1 1-1c3.12 0 5.667 2.547 5.667 5.667 0 0.547-0.453 1-1 1z"></path>
</svg>
