<!-- Generated by IcoMoon.io -->
<svg version="1.1" xmlns="http://www.w3.org/2000/svg" width="32" height="32" viewBox="0 0 32 32">
<path d="M18.797 15.921l6.827 6.854c0.398 0.4 0.595 0.956 0.541 1.517-0.055 0.56-0.359 1.068-0.826 1.383l-8.682 5.841c-0.579 0.392-1.333 0.43-1.948 0.102s-1.014-0.969-1.014-1.667v-9.076l-4.514 4.564c-0.734 0.742-1.919 0.746-2.659 0.012-0.74-0.736-0.746-1.932-0.011-2.671l6.803-6.859-6.803-6.86c-0.735-0.74-0.729-1.936 0.011-2.671 0.74-0.733 1.924-0.728 2.659 0.012l4.514 4.563v-9.076c0-0.697 0.397-1.338 1.014-1.667s1.369-0.29 1.948 0.101l8.682 5.843c0.466 0.314 0.771 0.822 0.826 1.383 0.054 0.561-0.143 1.118-0.541 1.516l-6.828 6.856zM17.527 5.437l3.838 2.583-3.838 3.853v-6.436zM17.527 19.969v6.436l3.838-2.583-3.838-3.853z"></path>
</svg>
