<!-- Generated by IcoMoon.io -->
<svg version="1.1" xmlns="http://www.w3.org/2000/svg" width="32" height="32" viewBox="0 0 32 32">
<path d="M10.103 23.926c0 0.287-0.162 0.455-0.439 0.455h-3.469c-0.277 0-0.439-0.168-0.439-0.455v-12.236c0-0.12-0.069-0.192-0.185-0.192h-3.607c-0.278 0-0.439-0.168-0.439-0.455v-2.969c0-0.287 0.162-0.455 0.439-0.455h12.048c0.277 0 0.439 0.168 0.439 0.455v2.969c0 0.287-0.162 0.455-0.439 0.455h-3.723c-0.116 0-0.185 0.072-0.185 0.192v12.236zM20.116 23.926c0 0.287-0.162 0.455-0.439 0.455h-3.469c-0.277 0-0.439-0.168-0.439-0.455v-15.852c0-0.287 0.162-0.455 0.439-0.455h3.446c0.231 0 0.416 0.096 0.532 0.311l2.798 4.717c0.069 0.144 0.208 0.144 0.277 0l2.798-4.717c0.116-0.215 0.301-0.311 0.532-0.311h3.446c0.277 0 0.439 0.168 0.439 0.455v15.852c0 0.287-0.162 0.455-0.439 0.455h-3.469c-0.277 0-0.439-0.168-0.439-0.455v-8.453c0-0.192-0.139-0.216-0.231-0.072l-1.434 2.466c-0.116 0.215-0.301 0.311-0.532 0.311h-1.619c-0.231 0-0.416-0.096-0.532-0.311l-1.434-2.466c-0.093-0.144-0.231-0.12-0.231 0.072v8.453z"></path>
</svg>
